<?xml version="1.0" encoding="UTF-8"?><svg id="Layer_3" xmlns="http://www.w3.org/2000/svg" viewBox="0 0 1600 800"><defs><style>.cls-1{stroke:#000;stroke-miterlimit:10;}</style></defs><path class="cls-1" d="M682.5,440.5c9.74-14.22,33.21-50.4,46-60,4.72-.6,36.89-4.64,83,2,0,0-4,1-3,25s-9,61-18,77-32,43-55,68-2,42,1,45,22,28,32,34,10,9,39,13c0,0,19,1,27,15s0,24,0,24h-80.12s-21.88-4-47.88-33-51-55-55-71-4-18,9-38c12.49-19.22,33.3-40.29,18.04-90.71-1.23-4.08,1.55-6.77,3.96-10.29Z"/><path class="cls-1" d="M1041.5,430.5c20.56-1.28,76.19-5.75,106-13,0,0-22,64-51,120s-22,90.96-6.5,100.98,40.5,16.02,44.5,25.02,3.95,14-.52,20h-77.54s-14.94-3.97-20.94-23.48-3-19.52-17-60.52,1-44,7-79c5.62-32.81,11.68-44.58,10-82-.19-4.31,1.7-7.73,6-8Z"/><path class="cls-1" d="M1533.5,251.5c-8-8-20-41-20-41-20.49-51.23-63.55-68.62-69.35-70.77-.42-.15-.76-.45-.97-.85-1.56-2.94-9.2-15.82-27.69-26.39-17.63-10.08-22.58,1.71-23.71,5.74-.06,.21-.16,.39-.28,.56-.77,4.59-1.62,13.24-1.02,27.7-.25-.21-5.33-9.86-7.55-26.99-13.37-.66-29.55-3.83-30.41-4.01-.03,0-.05,0-.08-.01-58.64-8.5-121.74,13.4-128.38,15.8-.38,.14-.79,.13-1.17,0-59.05-20.61-113.41,11.17-118.08,14.01-.22,.13-.47,.22-.73,.24-139.41,14.34-231.62,10.83-256.7,9.41-5.63-.32-11.26-.48-16.9-.47-27.49,.04-104.58,.89-142,9.03-46,10-83,25-115,65s-68,77-119,126-118,108-177,140-98,31-114,29-52-14-57-47,22-50,34-55,24-4,43-11c17.76-6.54,4.94-21.82,3.19-23.79-.12-.14-.26-.26-.42-.35-3.31-1.94-41.67-23-82.77,17.14-43,42-32,86-22,107s41,56,121,48,154-69,186-93,129.96-110.55,134.81-114.84c.13-.11,.23-.24,.32-.38l16.25-25.01c1.22-1.87,4.09-.41,3.3,1.67-18.2,47.54-37.25,97.78-50.69,125.55-15,31-47,39-61.11,60.2-14.11,21.2-34.89,72.8-34.89,114.8,0,39.47,30.81,54.21,34.52,55.84,.24,.1,.49,.16,.74,.16h49.83c.57,0,1.12-.26,1.47-.71,15.43-19.85-2.64-30.85-3.87-31.57-.05-.03-.09-.06-.14-.09-10.5-7.65-20.54-19.5-19.56-36.63,2-35-7-50,65-83s118-68,126-77c6.99-7.86,52.89-69.89,64.39-85.46,1.66-2.25,4.22-3.64,7-3.83l10.61-.71c34-2,79-1,128.5,15.75s49.5,22.25,121.71,32.75c64.21,9.34,150.92-8.21,169.34-12.21,2.13-.46,4.33,.36,5.66,2.09,18.2,23.64,37.12,25.5,41.06,25.62,.49,.02,.94,.24,1.28,.6,21.96,23.85,111.62,50.44,130.47,54.41,17.94,3.78,19.83,16.47,19.99,17.87,.01,.1,.03,.19,.06,.29,4.42,16.5,17.92,20.85,21.22,21.67,.48,.12,.89,.41,1.15,.83,12.6,20.38,13.51,48.83,13.58,52.85,0,.32,.09,.64,.25,.92,8.9,15.67,16.86,21.56,28.75,21.56s12-1,18-11,3-22,1-27-10-18-13-41-16-39-19-45-67-65-107-85c-36.09-18.04-34.73-35.27-34.12-38.47,.06-.33,.23-.64,.46-.89,34.08-36.1,45.24-56.62,48.89-66.4,2.07-5.55,6.46-9.9,11.95-12.13,22.41-9.09,47.47-9.49,56.92-9.27,2.4,.06,4.64,1.15,6.19,2.98,18.34,21.65,37.44,24.69,42.44,25.11,.69,.06,1.29,.5,1.55,1.14,.79,1.96,3.73,6.6,14.71,13.93,15,10,18,19,21,21s9,4,23-1c12.56-4.49,10.63-11.38,10.1-12.75,.41,.51,2.48,1.16,12.9-5.25,10.78-6.64,14.69-19.46,15.7-23.64,.19-.78,.86-1.35,1.66-1.4,3.32-.22,5.87-1.31,7.63-3.96,2-3,5-20-3-28Zm-43-16s-16-10-20-24c0,0,10-3,22,7,0,0,3,9-2,17Z"/></svg>